<svg width="32" height="32" viewBox="0 0 32 32" fill="none" xmlns="http://www.w3.org/2000/svg">
<path d="M26.335 7.86853C26.0221 7.58074 25.5612 7.47972 25.2002 7.2609C24.8393 7.04207 24.4252 6.98974 24.0287 6.84515C23.7744 6.75285 23.3801 6.63027 22.8347 6.54565C22.4665 6.48873 22.0671 6.29273 21.5998 6.31315C21.1324 6.33357 20.7507 6.571 20.3906 6.65911C19.8531 6.79123 19.4771 6.96237 19.234 7.07754C18.8161 7.27342 18.4739 7.46226 18.1696 7.68711C17.7556 7.99135 17.4702 8.28015 17.2525 8.51612C16.9934 8.79887 16.8763 8.67991 16.61 8.95362C16.471 9.06302 16.2326 9.14501 15.9178 9.2028C15.4693 9.28534 15.1606 9.11877 14.7722 8.85087C14.4483 8.62946 14.1195 8.34382 13.7393 8.04635C13.4183 7.79364 12.9664 7.70163 12.5456 7.49503C12.2016 7.32734 11.8733 7.24203 11.5488 7.16401C11.1657 7.07245 10.8295 6.94687 10.5133 6.93301C10.031 6.91329 9.63068 6.75408 9.42995 6.77833C9.02495 6.82691 8.65919 7.07137 8.30853 7.1887C7.91578 7.31974 7.6473 7.6615 7.32965 7.84066C6.95091 8.05413 6.43957 7.99273 6.1739 8.21128C5.71376 8.58998 5.55247 9.08397 5.45768 9.198C5.3508 9.32514 5.17683 9.71462 4.88865 10.2185C4.71816 10.5179 4.45235 10.8173 4.30176 11.2284C4.17457 11.5746 4.01077 11.9437 3.93969 12.3587C3.87477 12.7294 3.77346 13.134 3.78012 13.553C3.78776 13.9333 3.81831 14.3113 3.88689 14.65C3.96122 15.0106 4.14787 15.3395 4.2781 15.6714C4.40832 16.0033 4.6765 16.2608 4.85411 16.5788C5.03172 16.8969 5.24692 17.1536 5.44725 17.4602C5.63665 17.7505 5.66102 18.1727 5.86833 18.4755C6.01384 18.6895 6.25657 18.8225 6.62867 19.2451C6.80932 19.451 6.98505 19.7636 7.29532 20.0956C7.50457 20.3193 7.74635 20.5809 8.03302 20.8803C8.25481 21.1129 8.62799 21.2378 8.90557 21.5245C9.1814 21.8112 9.42914 22.1058 9.6886 22.3689C9.96968 22.6537 10.2381 22.9258 10.4993 23.1834C10.7856 23.4662 11.0385 23.7534 11.3048 24.0035C11.6016 24.2825 11.7925 24.6481 12.0655 24.8815C12.3798 25.1509 12.7669 25.2626 13.0516 25.4683C13.3937 25.715 13.6049 26.1244 13.9115 26.2708C14.2964 26.4542 14.7107 26.4275 15.0498 26.439C15.0993 26.4417 15.7664 26.5239 16.6494 26.4602C16.6494 26.4602 17.2224 26.3365 17.7155 26.2807C17.955 26.2538 18.3725 26.1278 18.8332 25.773C19.1095 25.5597 19.4451 25.3048 19.7899 24.9854C20.0637 24.73 20.2188 24.2839 20.5319 23.9651C20.8035 23.6895 21.2276 23.5357 21.5247 23.2155C21.7925 22.927 21.8671 22.4237 22.1519 22.1019C22.416 21.8043 22.8524 21.6503 23.1301 21.3268C23.3905 21.0219 23.6703 20.7167 23.9408 20.3896C24.2114 20.0625 24.4415 19.7417 24.7067 19.4129C24.9719 19.0841 25.2181 18.7777 25.4798 18.4471C26.0632 17.7902 26.0542 17.7812 26.6484 17.1333C26.9333 16.8225 27.3021 16.5522 27.5208 16.1931C27.7395 15.8339 27.8309 15.3744 27.9764 14.9745C28.122 14.5764 28.0122 14.1209 28.0762 13.7042C28.1402 13.2876 28.4975 12.8834 28.4802 12.461C28.4628 12.0367 28.2023 11.6339 28.1023 11.2242C28.0023 10.8145 27.8813 10.4162 27.7041 10.032C27.5252 9.64773 27.1845 9.38439 26.9359 9.04383C26.6872 8.70328 26.6567 8.15064 26.3474 7.86645L26.335 7.86853Z" fill="#E1E1E1"/>
<path d="M8.609 18.8855C8.62882 18.9053 8.64157 18.9252 8.65076 18.9434L6.75672 20.871C6.75672 20.871 6.74775 20.8638 6.74242 20.8621C6.68015 20.8376 6.64611 20.8126 6.59733 20.7566C6.51778 20.6626 6.45786 20.6675 6.38777 20.6928C6.36608 20.6675 6.33376 20.6406 6.32082 20.6114C6.29137 20.5514 6.29515 20.4759 6.20667 20.4648C6.19785 20.465 6.17734 20.4103 6.16443 20.383C6.11671 20.292 5.918 20.3291 5.82573 20.3052C5.7352 20.2795 5.71015 20.1752 5.65068 20.2021C5.6419 20.2042 5.63469 20.1969 5.63098 20.1878C5.6291 20.1824 5.62723 20.1769 5.62888 20.1713C5.63608 20.0903 5.55999 20.0808 5.53047 20.0171C5.51194 20.0616 5.50015 20.0894 5.48163 20.1339C5.37895 20.0311 5.3019 19.9739 5.15683 19.782C5.09698 19.7023 5.02243 19.5935 4.92229 19.4411C4.87493 19.3686 4.81472 19.2705 4.77258 19.1942C4.73045 19.1178 4.68652 19.0397 4.64071 18.956C4.58211 18.8506 4.5585 18.7298 4.48704 18.6871C4.49761 18.5986 4.46603 18.5202 4.4382 18.4528C4.42334 18.4163 4.39423 18.3728 4.37599 18.3438C4.36158 18.3294 4.35261 18.3222 4.36121 18.311C4.39727 18.2606 4.34581 18.247 4.35573 18.2137C4.32397 18.2143 4.29927 18.2148 4.2746 18.2171C4.27802 18.2116 4.27964 18.2042 4.28482 18.1986C4.34363 18.1386 4.35855 18.0905 4.30903 18.0859C4.27393 18.0958 4.21971 18.0326 4.18335 17.98C4.14515 17.9238 4.10853 17.8584 4.05968 17.7987C4.01622 17.7444 4.01434 17.6507 3.98096 17.5705C3.94948 17.4977 3.88974 17.4235 3.85805 17.3396C3.84312 17.2994 3.82978 17.2501 3.8254 17.2079C3.83043 17.1949 3.839 17.1819 3.84756 17.1689C3.88034 17.1314 3.88692 17.1074 3.88607 17.0651C3.88548 17.0357 3.93595 16.9998 3.8908 16.9493C3.86551 16.9204 3.93138 16.8602 3.88961 16.8022C3.90733 16.8056 3.92501 16.807 3.94979 16.8102C3.90706 16.7045 3.86442 16.6024 3.79265 16.4568C3.77791 16.4258 3.74383 16.399 3.7185 16.3682C3.68052 16.323 3.61939 16.2673 3.61512 16.2306C3.60067 16.1261 3.56368 16.0423 3.51798 15.9642C3.48515 15.9116 3.45104 15.8828 3.42178 15.832C3.36148 15.7302 3.25565 15.646 3.18914 15.4984C3.16884 15.4547 3.12517 15.3894 3.09856 15.3826C2.971 15.3595 2.94654 15.1964 2.93315 15.0569C2.92634 14.9817 2.91803 14.9194 2.89737 14.8573C2.88604 14.8208 2.87134 14.7917 2.85314 14.7645C2.8113 14.7028 2.76549 14.6192 2.76346 14.5181C2.76313 14.5016 2.73945 14.4653 2.73063 14.4655C2.68843 14.4737 2.68064 14.4371 2.67251 14.3839C2.65243 14.263 2.62536 14.1459 2.61771 14.0285C2.6099 13.9036 2.61805 13.7822 2.62421 13.6497C2.63473 13.6458 2.6505 13.64 2.67854 13.6302C2.68115 13.5842 2.68552 13.5382 2.68812 13.4922C2.69234 13.4388 2.6984 13.389 2.70439 13.3356C2.71647 13.2343 2.73036 13.1347 2.73903 13.039C2.77164 12.7295 2.76807 12.7278 2.8716 12.5217C2.90052 12.4678 2.90331 12.431 2.89864 12.3741L2.88267 12.1943L2.87829 12.1521L2.88046 12.084C2.8813 12.0381 2.8857 11.9939 2.89011 11.9497C2.90774 11.7729 2.94845 11.603 3.0107 11.451C3.02412 11.4158 3.02838 11.3642 3.04745 11.3473C3.18789 11.2213 3.15693 11.0859 3.13126 10.9504C3.16997 10.9442 3.19816 10.9418 3.22984 10.9374C3.23602 10.8932 3.24042 10.849 3.24483 10.8048C3.27514 10.6443 3.32126 10.4798 3.40472 10.3292C3.43199 10.2809 3.43419 10.2147 3.45789 10.1646C3.47484 10.1293 3.52368 10.1007 3.53019 10.073C3.56116 9.94559 3.59051 10.0884 3.62293 10.0326C3.65611 9.92714 3.68801 9.84562 3.77148 9.78329C3.83584 9.73604 3.89597 9.65396 3.86277 9.58295C3.85545 9.57023 3.90062 9.5344 3.92132 9.51009C3.89103 9.49599 3.89235 9.47391 3.89334 9.43529C3.89645 9.32678 3.91743 9.22894 3.97182 9.12492C4.01258 9.04506 4.09226 8.96994 4.07057 8.85642C4.06659 8.83444 4.08346 8.7955 4.07604 8.77727C4.05195 8.72078 4.04236 8.68237 4.04507 8.64188C4.04783 8.60323 4.06117 8.56436 4.09847 8.48825C4.10861 8.46599 4.12221 8.43998 4.14106 8.41203L4.16672 8.37108L4.20274 8.31889L4.24397 8.26292L4.30252 8.19006L4.31807 8.17321L4.28712 8.21426L4.25798 8.25713L4.23747 8.29062C4.18995 8.38532 4.24515 8.32172 4.27974 8.2861C4.39882 8.15136 4.50724 7.92494 4.6283 7.71297C4.70497 7.57542 4.76928 7.43811 4.91443 7.37086C4.98433 7.24815 5.13353 7.20655 5.20689 7.08009C5.21545 7.06705 5.25195 7.03874 5.26426 7.03666C5.27481 7.03461 5.27838 7.03637 5.29411 7.02871C5.30984 7.02104 5.32557 7.01337 5.34134 7.00754C5.37281 6.9922 5.40427 6.97686 5.43221 6.9616C5.4916 6.931 5.54575 6.90234 5.60338 6.87177C5.65579 6.84498 5.70994 6.81633 5.7693 6.78389C5.79727 6.77046 5.8252 6.75519 5.8549 6.73989C5.88115 6.72833 5.90735 6.71494 5.93533 6.70151C6.17141 6.592 6.36674 6.56234 6.49073 6.58374C6.52826 6.60688 6.56752 6.62815 6.60053 6.60175C6.6231 6.58292 6.65357 6.6062 6.68971 6.64775C6.70059 6.66224 6.72029 6.67654 6.72548 6.67093C6.77017 6.61121 6.82398 6.56602 6.82555 6.46857C6.82507 6.44468 6.82113 6.42454 6.82415 6.39875C6.84105 6.36165 6.86494 6.32073 6.8924 6.28158C6.97164 6.18441 7.08793 6.0865 7.2368 6.02836C7.28057 6.01094 7.32872 5.94748 7.38106 5.91702C7.53114 5.83129 7.64008 5.71882 7.82081 5.66556C7.83132 5.66167 7.84364 5.65958 7.85591 5.65566C7.88062 5.65516 7.93637 5.61912 8.01154 5.58269C8.02779 5.60074 8.04573 5.61509 8.06194 5.6313C8.07907 5.60522 8.08756 5.58851 8.10307 5.56982C8.12383 5.54918 8.14295 5.5341 8.16559 5.51894C8.20914 5.49049 8.26682 5.46176 8.38231 5.41165C8.53981 5.34415 8.70293 5.29308 8.74115 5.17468C8.89671 5.09803 9.05777 5.0323 9.22623 4.98297C9.40937 5.04913 9.48122 4.93556 9.60631 4.92386C9.67148 4.91704 9.71128 4.87764 9.76903 4.85258C9.88063 4.8724 9.99054 4.89592 10.097 4.92135C10.1999 4.94869 10.3117 4.97953 10.3546 5.00624C10.4048 5.04383 10.4454 5.04301 10.4809 5.057C10.5165 5.07099 10.5434 5.09067 10.572 5.10664C10.572 5.10664 10.5667 5.10858 10.5915 5.11176C10.6145 5.11313 10.6145 5.11497 10.6215 5.11483L10.6375 5.11818L10.7048 5.1297C10.7934 5.14446 10.8892 5.1701 10.9704 5.17215C11.0375 5.17264 11.0976 5.17694 11.1383 5.1798C11.1807 5.18263 11.2125 5.1875 11.2533 5.19587C11.326 5.21279 11.422 5.24395 11.5643 5.29806C11.6799 5.34353 11.7826 5.35801 11.873 5.37825C11.8937 5.444 11.8758 5.51788 12.0101 5.52621C12.102 5.52988 12.1756 5.59273 12.2663 5.62399C12.3676 5.65872 12.3793 5.71362 12.3964 5.77577C12.494 5.80322 12.5988 5.83603 12.7037 5.87253C12.7263 5.85553 12.7454 5.8386 12.7697 5.81973C12.8373 5.84411 12.9068 5.8758 12.9778 5.89826C13.0346 5.9155 13.1003 5.9344 13.1497 5.93341C13.1797 5.9328 13.2062 5.93227 13.2345 5.93722C13.2593 5.93856 13.2592 5.93672 13.2718 5.94749C13.3007 5.98 13.3563 5.93661 13.3991 5.9578C13.4508 5.9825 13.5067 5.95196 13.5686 5.96175C13.6519 5.97478 13.7508 5.9783 13.8659 5.99805C13.9226 6.00794 13.9811 6.01963 14.0557 6.04386C14.1357 6.07166 14.214 6.10501 14.2926 6.14938C14.4889 6.25939 14.6817 6.3658 14.866 6.48892L14.9376 6.53711L14.984 6.56558L15.0681 6.61904C15.1235 6.65468 15.1754 6.69224 15.2257 6.7335C15.2544 6.75682 15.3003 6.75774 15.3429 6.76975C15.3348 6.80299 15.3299 6.82515 15.3234 6.85101C15.3757 6.90694 15.4312 6.9481 15.49 6.97633C15.5453 7.00279 15.6218 7.03066 15.6317 6.99737C15.6403 6.98985 15.6473 6.98236 15.6576 6.96928C15.6731 6.94875 15.6868 6.92826 15.7005 6.90776C15.7503 6.83876 15.7449 6.83702 15.7485 6.83879C15.7485 6.83879 15.7536 6.8295 15.7486 6.8443C15.7108 6.98108 15.7493 6.87921 15.7525 6.86077C15.7541 6.85522 15.7573 6.83678 15.759 6.83307C15.7589 6.82755 15.7594 6.85328 15.7623 6.82013C15.7613 6.77053 15.7626 6.83483 15.7642 6.82929C15.764 6.81826 15.7661 6.83476 15.7754 6.85847C15.7791 6.86758 15.7809 6.86755 15.8037 6.94797C15.8113 6.97722 15.8281 7.02283 15.8336 7.03191C15.8499 7.05548 15.874 7.1083 15.8995 7.1519C15.9123 7.1737 15.9251 7.19366 15.9377 7.20811C15.9503 7.22072 15.9573 7.21323 15.9679 7.21669C16.0084 7.29675 15.9931 7.32647 16.0069 7.40155C16.0174 7.39583 16.028 7.39745 16.0331 7.38632C16.0365 7.3789 16.0326 7.3606 16.0323 7.34774C16.0322 7.34223 16.0356 7.33664 16.0339 7.33852C16.0374 7.33844 16.0217 7.34795 16.048 7.33639C16.0673 7.33049 16.0866 7.32459 16.1094 7.32046C16.113 7.32038 16.1432 7.32897 16.1593 7.34335C16.1773 7.35953 16.1935 7.37574 16.1953 7.37755L16.2261 7.41553C16.2261 7.41553 16.2387 7.42814 16.2387 7.4263C16.2456 7.41881 16.2508 7.41319 16.2559 7.40757C16.3143 7.50014 16.3167 7.44679 16.3357 7.42619C16.3565 7.40372 16.3664 7.36859 16.3638 7.33005C16.3637 7.32453 16.3636 7.32086 16.3635 7.31535C16.3633 7.30616 16.3667 7.2969 16.3701 7.29132C16.3701 7.29132 16.37 7.28765 16.3717 7.28577L16.3838 7.27083L16.4079 7.24093C16.4424 7.20164 16.4752 7.16422 16.5026 7.12323C16.65 6.90338 16.8851 6.74242 17.0287 6.51162C17.1022 6.39435 17.2397 6.29417 17.3769 6.18664C17.5108 6.08286 17.6598 6.03391 17.8018 5.98327C17.8911 5.95022 17.9824 5.92266 18.0663 5.88237C18.1782 5.8305 18.2687 5.76802 18.3961 5.78017C18.4827 5.78761 18.6084 5.72076 18.7064 5.67651C18.8358 5.61693 18.9745 5.57738 19.1173 5.57084C19.1597 5.56999 19.2484 5.5921 19.2802 5.50874C19.3541 5.49623 19.4314 5.47997 19.5037 5.47668C19.5531 5.47569 19.5959 5.49688 19.6453 5.49405C19.7194 5.49073 19.7949 5.4745 19.8689 5.46383C19.8953 5.45962 19.9337 5.44047 19.9444 5.4476C19.9963 5.47965 20.0511 5.48406 20.1056 5.47561C20.1286 5.47515 20.1477 5.46374 20.167 5.45783C20.1996 5.49578 20.2283 5.52093 20.2428 5.53719C20.3061 5.52672 20.3833 5.50312 20.4728 5.47558C20.5605 5.44809 20.6586 5.41487 20.792 5.37726C21.0395 5.30612 21.2945 5.26056 21.5523 5.26457C21.713 5.26869 21.8723 5.29122 22.0285 5.33403C22.0773 5.30548 22.1314 5.27131 22.1926 5.24251C22.245 5.21756 22.3012 5.19989 22.3593 5.19321C22.4191 5.18465 22.4827 5.18521 22.5304 5.18793C22.6311 5.19509 22.7235 5.22632 22.7986 5.27444C22.8523 5.30828 22.8512 5.25684 22.8775 5.24712C22.8596 5.23278 22.8417 5.22027 22.8202 5.20416C22.8271 5.19851 22.8392 5.18356 22.8427 5.18533C22.8926 5.20822 22.9269 5.24245 22.9605 5.24729C22.9817 5.25054 22.9994 5.25202 23.0206 5.2516C23.0948 5.25746 23.1673 5.25968 23.2306 5.24738C23.4133 5.20694 23.5548 5.3107 23.7144 5.34793C23.7851 5.43658 23.9374 5.46476 24.0028 5.55719C24.0282 5.5916 24.0414 5.62993 24.0671 5.67904C24.1724 5.65303 24.2967 5.6873 24.3619 5.77237C24.4096 5.86148 24.4901 5.82494 24.5604 5.89888C24.6128 5.95665 24.7344 5.95053 24.8397 5.919C24.8958 5.90133 24.9526 5.91673 24.9907 5.96743C25.0143 6.00004 25.1221 6.00707 25.0754 6.05579C25.034 6.10258 24.9993 6.04446 24.9566 6.0251C24.9049 6.00224 24.838 6.0091 24.7655 6.00504C24.7475 6.07525 24.9961 6.14929 24.8532 6.15216C24.9905 6.21925 24.9328 6.42443 24.9804 6.33341C25.0672 6.16992 25.2158 6.27905 25.2196 6.28817C25.2674 6.38462 25.3344 6.38144 25.4173 6.37793C25.4579 6.37712 25.502 6.37623 25.5463 6.38453C25.5676 6.38962 25.5907 6.39834 25.6121 6.41078C25.6335 6.42321 25.6587 6.44293 25.6553 6.45218C25.663 6.48328 25.745 6.43384 25.7929 6.44942L26.2344 6.63354C26.3679 6.68967 26.4691 6.80527 26.6402 6.89006C26.7543 6.94658 26.8446 7.04586 26.9296 7.15076L25.1796 9.21697L25.1929 9.26449C25.1932 9.27919 25.19 9.2958 25.1851 9.31611C25.1801 9.33276 25.2014 9.33417 25.1978 9.33056C25.22 9.29703 25.2112 9.29537 25.1973 9.31035C25.1801 9.33092 25.1629 9.35332 25.1457 9.37389C25.1302 9.39258 25.1111 9.4095 25.1076 9.41141C25.0332 9.40004 24.9178 9.36744 24.7635 9.32643C24.6037 9.28369 24.4829 9.242 24.3473 9.17121C24.3152 9.15531 24.2759 9.1322 24.2384 9.10906C24.2187 9.09659 24.1991 9.08596 24.1794 9.07165C24.1794 9.07165 24.1847 9.07154 24.1865 9.07335C24.2007 9.07674 24.2129 9.07281 24.2163 9.06356C24.1927 9.11917 24.2174 9.03229 24.186 9.04762C24.1615 9.06098 24.1399 9.03936 24.0891 9.05692C24.0365 9.0782 23.9537 8.99715 23.8522 9.03963C23.7576 8.99006 23.697 9.04642 23.595 9.06318C23.5388 8.98895 23.4317 8.93412 23.4282 8.84597C23.4277 8.82208 23.4024 8.79134 23.3771 8.76244C23.3678 8.73874 23.3567 8.71323 23.3474 8.69136C23.34 8.67129 23.3186 8.66253 23.3129 8.64242C23.3073 8.62416 23.3066 8.58925 23.317 8.57985C23.329 8.56674 23.3538 8.56992 23.3873 8.56557C23.3382 8.49303 23.2909 8.42598 23.2402 8.36083C23.2489 8.35514 23.2576 8.34761 23.2785 8.33432C23.2064 8.26041 23.2077 8.14827 23.1757 8.05149C23.1457 7.96203 23.1022 7.99415 23.0492 7.99154C23.0608 7.95639 23.0899 7.91169 23.079 7.89353C23.0534 7.84993 23.0117 7.79379 22.9674 7.78549C22.8681 7.76543 22.7686 7.72883 22.6648 7.74746C22.5907 7.74895 22.515 7.75966 22.4466 7.78309C22.4116 7.79482 22.3497 7.78871 22.3089 7.77851C22.2449 7.75957 22.2063 7.7677 22.1643 7.78509C22.1397 7.79477 22.1081 7.80276 22.0816 7.79962L21.9205 7.77712C21.8674 7.77084 21.8588 7.77836 21.8324 7.78441C21.7904 7.79996 21.7523 7.83748 21.7213 7.87487C21.7023 7.89547 21.685 7.9142 21.6694 7.93105C21.6522 7.94978 21.6348 7.96483 21.6174 7.97621C21.5947 7.98953 21.5703 8.00289 21.5623 8.04532C21.5541 8.07674 21.5507 8.08416 21.5313 8.08455C21.4997 8.0907 21.4607 8.08596 21.4132 8.0906C21.3673 8.09152 21.3124 8.08159 21.2541 8.07909C21.2358 8.13827 21.1477 8.14188 21.0972 8.17782C21.0172 8.23825 20.8911 8.28489 20.7664 8.31865C20.7313 8.32854 20.6927 8.33851 20.6577 8.35208C20.6461 8.39091 20.6295 8.44271 20.6162 8.48341C20.5539 8.45893 20.5042 8.44523 20.4561 8.42046C20.415 8.39923 20.3773 8.36507 20.3379 8.34013C20.329 8.33479 20.3133 8.34246 20.3079 8.33705C20.212 8.21951 20.212 8.21951 20.1201 8.214C20.1165 8.21408 20.1093 8.20503 20.1093 8.20503C20.1366 8.16037 20.1165 8.12217 20.091 8.08776C20.0856 8.08052 20.0577 8.09762 20.0435 8.09239C19.9153 8.03799 19.7589 8.07238 19.618 7.99802C19.6055 7.99092 19.6084 7.96329 19.6046 7.94866C19.534 7.95008 19.453 7.95906 19.3736 7.95882C19.2554 7.96119 19.1598 8.03663 19.049 8.05357C18.8801 8.08086 18.7481 8.19195 18.6248 8.29001C18.564 8.33902 18.5124 8.40807 18.4571 8.46799C18.4036 8.52421 18.3517 8.5804 18.2963 8.63297C18.2599 8.66679 18.1967 8.6846 18.1746 8.72548C18.144 8.78308 18.1062 8.83347 18.0684 8.88569C18.022 8.94912 17.9756 9.01071 17.9309 9.07226L17.9018 9.11512C17.8675 9.16727 17.8329 9.20105 17.7843 9.24247C17.6959 9.3196 17.6073 9.39307 17.5205 9.46282C17.4353 9.5307 17.3415 9.60427 17.2795 9.67904C17.25 9.7072 17.3058 9.67483 17.2663 9.72526C17.2456 9.7514 17.2248 9.7702 17.2023 9.79271C17.1573 9.83589 17.1123 9.88091 17.0797 9.92935C17.0711 9.94055 17.0431 9.95031 17.0115 9.96013C16.9922 9.9642 16.9729 9.9701 16.9536 9.97416C16.9338 10.0462 16.9122 10.1128 16.8871 10.1814C16.7969 10.174 16.7056 10.1942 16.6471 10.2689C16.5215 10.4332 16.3025 10.5166 16.0542 10.5418C15.8745 10.5601 15.6901 10.6043 15.5089 10.5491C15.4538 10.5318 15.334 10.5397 15.3118 10.577C15.2657 10.6551 15.1576 10.637 15.0387 10.6027C14.957 10.5786 14.8771 10.5544 14.7971 10.5248C14.7633 10.5108 14.7207 10.5024 14.6974 10.4827C14.5396 10.3627 14.4235 10.2051 14.2006 10.1784C14.197 10.1785 14.1734 10.1458 14.1679 10.1312C14.0993 9.97088 13.9414 9.92994 13.8386 9.90627C13.78 9.89275 13.7267 9.87544 13.675 9.85074C13.6501 9.84022 13.618 9.82064 13.6001 9.80997C13.5822 9.79931 13.5626 9.78683 13.5428 9.77069C13.5159 9.74917 13.4735 9.74819 13.4397 9.73416C13.381 9.70961 13.374 9.62704 13.3775 9.62697C13.5092 9.59307 13.3559 9.51528 13.3672 9.46175C13.3938 9.47224 13.4188 9.48277 13.4704 9.50379C13.4393 9.44928 13.4049 9.40953 13.4007 9.37285C13.3939 9.3013 13.3924 9.22414 13.4498 9.18255C13.5368 9.12014 13.4608 9.02609 13.4557 8.94716C13.4531 8.90861 13.3585 8.85537 13.4605 8.83862C13.4367 8.79498 13.4182 8.74941 13.3908 8.70768C13.3727 8.68231 13.362 8.67885 13.3426 8.67924C13.3285 8.67952 13.3145 8.68532 13.3023 8.69475C13.2624 8.72864 13.2328 8.74762 13.202 8.71147C13.1948 8.70243 13.1788 8.6954 13.1647 8.69936C13.0434 8.72385 12.9845 8.68828 12.8244 8.62716C12.7533 8.68925 12.6471 8.67851 12.536 8.68075C12.4319 8.68284 12.3239 8.66847 12.1997 8.63604C12.1483 8.62421 12.0719 8.60001 12.0365 8.59521L11.9483 8.59698C11.8882 8.59451 11.83 8.59569 11.7662 8.58226C11.7325 8.57559 11.6909 8.61135 11.6505 8.62319C11.5241 8.65698 11.3992 8.58964 11.2363 8.56351C11.186 8.60863 11.1449 8.67195 11.0222 8.62846C10.9405 8.59886 10.8591 8.59131 10.7915 8.56693C10.6831 8.52867 10.5954 8.55433 10.5322 8.57214C10.4817 8.43347 10.4871 8.43704 10.4855 8.35803C10.4675 8.34185 10.45 8.34588 10.4326 8.3591C10.3552 8.37168 10.2832 8.39151 10.2023 8.40416C10.0386 8.42767 9.86938 8.44026 9.73172 8.44119C9.69655 8.44741 9.68081 8.45508 9.6649 8.45356C9.64725 8.45392 9.63126 8.44872 9.61512 8.43618C9.60633 8.34997 9.5993 8.26372 9.59044 8.17384C9.58378 8.10596 9.55752 8.02929 9.52804 7.96739C9.51329 7.93644 9.53836 7.86609 9.49248 7.86702C9.50317 7.78409 9.44803 7.76314 9.42072 7.72141C9.37701 7.65429 9.33792 7.55398 9.24625 7.5595C9.22508 7.55992 9.18582 7.53866 9.18008 7.51671C9.15357 7.42718 9.10028 7.4981 9.06297 7.48598C9.0623 7.45291 9.06167 7.42168 9.06384 7.35363C9.0155 7.4079 8.97217 7.44737 8.93597 7.49037C8.89627 7.53529 8.85323 7.58945 8.8317 7.65973C8.80171 7.74856 8.74684 7.8287 8.64242 7.90248C8.61312 7.93799 8.57832 7.96259 8.53822 7.98729C8.48764 8.01771 8.46648 8.10637 8.40814 8.10202C8.34286 8.10334 8.32772 8.1404 8.2613 8.17298C8.28924 8.24594 8.31715 8.31707 8.34704 8.39918C8.2428 8.48215 8.13162 8.57077 8.02216 8.65752C7.91285 8.75162 7.77659 8.82236 7.73327 8.95006C7.69979 9.0408 7.57371 9.09112 7.44131 9.09011C7.40955 9.09074 7.34107 9.10866 7.33247 9.11986C7.28278 9.19438 7.16332 9.22252 7.06882 9.26302C7.04081 9.27461 7.00755 9.28814 6.97424 9.29984C6.94796 9.30956 6.93216 9.31355 6.91969 9.30829C6.83614 9.27872 6.79071 9.30169 6.78428 9.33307C6.78435 9.33674 6.77546 9.33324 6.77891 9.3295C6.7841 9.32388 6.77869 9.31847 6.79792 9.3089L6.81707 9.29565L6.85378 9.27837C6.87124 9.26883 6.91675 9.24953 6.94998 9.23416C6.96218 9.22656 6.9588 9.23398 6.96064 9.23762L6.9609 9.25048C6.96461 9.2596 6.96659 9.27059 6.97211 9.2815C6.97961 9.30341 6.99833 9.35634 6.94484 9.32984C6.94131 9.32991 6.93973 9.33913 6.94164 9.34645C6.95323 9.39584 6.96632 9.43234 6.91357 9.44259C6.8767 9.45252 6.86895 9.50598 6.81264 9.51446C6.76338 9.52281 6.76059 9.55962 6.73659 9.59503C6.71436 9.6304 6.70094 9.66559 6.66868 9.72873L6.63799 9.78265L6.59006 9.85714C6.56779 9.89067 6.55408 9.91116 6.49553 9.98402L6.45933 10.027L6.44033 10.0476C6.44033 10.0476 6.42478 10.0645 6.42996 10.0589C6.43507 10.0496 6.44014 10.0384 6.44521 10.0273C6.47873 9.93841 6.43591 10.0036 6.51458 10.0535C6.4836 10.0927 6.49588 10.177 6.46001 10.2365C6.42925 10.2868 6.35386 10.3122 6.29457 10.3483C6.28064 10.3578 6.26296 10.3563 6.24175 10.3549C6.24506 10.3438 6.24833 10.3309 6.24815 10.3217C6.24807 10.318 6.23223 10.3202 6.22513 10.3185C6.22536 10.3295 6.22558 10.3405 6.23469 10.355C6.1284 10.4233 6.01968 10.5468 5.89183 10.509C5.80681 10.5824 5.69209 10.5828 5.63844 10.7236C5.58291 10.8589 5.51361 10.7482 5.47837 10.8389C5.45654 10.8945 5.53814 10.9149 5.46916 10.9954C5.388 11.0852 5.3936 11.188 5.42867 11.2645C5.47669 11.3702 5.46273 11.466 5.47292 11.5338C5.48112 11.5906 5.49976 11.6399 5.51664 11.6892C5.52043 11.702 5.52234 11.7093 5.52068 11.7148C5.51231 11.7371 5.50025 11.752 5.47584 11.7672C5.48331 11.7873 5.49254 11.8073 5.5111 11.8529C5.44716 12.0086 5.41865 12.1709 5.4602 12.3061C5.36482 12.3907 5.49756 12.4965 5.44761 12.5581C5.43729 12.5712 5.47861 12.6071 5.50563 12.6342C5.50574 12.6397 5.50574 12.6397 5.50596 12.6507C5.50273 12.6655 5.49949 12.6802 5.49802 12.695C5.49159 12.7263 5.48513 12.7559 5.48042 12.7854C5.47278 12.8444 5.47569 12.9013 5.51551 12.9501C5.52639 12.9646 5.51309 13.0053 5.51188 13.0329C5.50373 13.1544 5.50043 13.2537 5.50554 13.3326C5.50577 13.3436 5.51135 13.3582 5.52213 13.3672C5.57587 13.4066 5.60116 13.4355 5.53636 13.4607C5.51714 13.4702 5.54739 13.4825 5.5987 13.4888C5.604 13.4887 5.60584 13.4923 5.61117 13.4941C5.63065 13.4974 5.65366 13.5006 5.6731 13.502L5.66627 13.5132L5.66186 13.5574L5.65128 13.6458C5.64353 13.6993 5.60957 13.7661 5.63149 13.8025C5.68439 13.8878 5.67205 13.9763 5.69477 14.053C5.70418 14.0822 5.70488 14.1171 5.66805 14.1289C5.58392 14.1582 5.62395 14.218 5.62436 14.2382C5.62436 14.2382 5.62436 14.2382 5.62083 14.2383C5.61227 14.2513 5.57713 14.2594 5.56312 14.2652C5.52857 14.3026 5.61653 14.288 5.51038 14.3637C5.51226 14.3691 5.51608 14.3838 5.52516 14.3964C5.56343 14.4563 5.5759 14.5498 5.54993 14.6625C5.54026 14.7086 5.54468 14.7526 5.60628 14.744C5.62812 14.7767 5.63305 14.8464 5.68381 14.8252C5.70543 14.8468 5.72888 14.8721 5.76675 14.9118C5.70908 14.9405 5.65839 14.9654 5.60947 14.9903L5.6098 15.0068L5.61032 15.0325C5.58749 15.0385 5.56466 15.0445 5.5436 15.0504C5.53537 15.08 5.45101 15.0982 5.46249 15.1421C5.4683 15.1677 5.41908 15.1779 5.39438 15.1784C5.37045 15.2175 5.3466 15.2602 5.32128 15.3177C5.33584 15.3395 5.35396 15.363 5.37212 15.3884C5.40477 15.4318 5.43921 15.4771 5.4737 15.5242C5.50546 15.5236 5.53538 15.5193 5.56721 15.5223C5.59904 15.5254 5.65734 15.5279 5.66469 15.5424C5.72947 15.6918 5.87379 15.7588 5.98592 15.8925C5.99129 15.8961 5.99485 15.8979 5.99845 15.9015C6.05054 15.9464 6.13057 15.976 6.20924 16.0259C6.24677 16.049 6.2252 16.1175 6.2946 16.1455C6.34441 16.1647 6.37952 16.2431 6.44756 16.2913C6.48521 16.32 6.50528 16.3526 6.55627 16.4307C6.60002 16.4996 6.64369 16.5649 6.68498 16.599C6.78 16.6725 6.85794 16.7738 6.93224 16.8697C6.9594 16.9041 6.9994 16.9621 7.00356 16.9933C7.01842 17.118 7.0539 17.2147 7.09982 17.3038C7.12181 17.3438 7.15126 17.4039 7.16747 17.4201C7.18747 17.4491 7.20364 17.4635 7.2182 17.4853C7.25081 17.5269 7.27606 17.5539 7.29022 17.5555C7.30433 17.5552 7.30738 17.5312 7.29234 17.4856C7.28668 17.4673 7.28278 17.449 7.27708 17.4289C7.26951 17.4033 7.25653 17.3724 7.24914 17.356C7.22888 17.3141 7.21451 17.3015 7.19223 17.3351C7.18529 17.3407 7.21341 17.3346 7.23649 17.3415C7.30402 17.3641 7.41456 17.4188 7.52888 17.4864C7.54138 17.4935 7.56667 17.5224 7.56502 17.5279C7.52041 17.6795 7.68689 17.7074 7.76379 17.7573C7.86036 17.8197 7.91627 17.8793 7.96572 17.9683C7.99135 18.0138 8.01352 18.063 8.02867 18.1141C8.05334 18.2 8.06948 18.2125 8.18053 18.293C8.17741 18.3133 8.17443 18.3409 8.17149 18.3704C8.13806 18.5512 8.30332 18.5185 8.41739 18.5732C8.50999 18.6136 8.51106 18.6669 8.50018 18.7406C8.4939 18.7793 8.50625 18.7791 8.53636 18.784C8.55051 18.7855 8.55952 18.7945 8.56856 18.8054C8.58661 18.8253 8.60473 18.8488 8.62275 18.8668L8.609 18.8855ZM9.24778 7.46021C9.22098 7.44421 9.19955 7.43177 9.17099 7.41581C9.17637 7.5076 9.20099 7.50343 9.24778 7.46021Z" fill="#E1E1E1"/>
<path d="M25.1027 9.16339C25.1298 9.19593 25.1567 9.21744 25.1835 9.23161L26.9335 7.16356C26.9425 7.17073 26.955 7.18151 26.964 7.18684C27.0784 7.25806 27.1613 7.34646 27.2233 7.44447C27.278 7.52976 27.3141 7.57314 27.3517 7.59812C27.3893 7.62493 27.4265 7.63154 27.4654 7.6326C27.4838 7.67083 27.5184 7.7216 27.5262 7.76004C27.5455 7.84236 27.5223 7.91819 27.6079 7.96242C27.6151 7.96595 27.6197 8.02284 27.6257 8.0558C27.6337 8.10159 27.6909 8.1372 27.7493 8.14889C27.8041 8.14963 27.8657 8.14288 27.8993 8.14588C27.9629 8.15011 27.9449 8.21848 28.0154 8.21339C28.0278 8.21314 28.0352 8.23137 28.0302 8.24434C28.0148 8.27222 28.0204 8.28497 28.0312 8.29762C28.0438 8.31024 28.0599 8.32094 28.0639 8.34292C28.0914 8.30744 28.1086 8.28504 28.1379 8.24953C28.1505 8.26214 28.1614 8.27479 28.1722 8.28744C28.1921 8.31093 28.2138 8.33439 28.2337 8.35789C28.2897 8.42477 28.3514 8.50624 28.4153 8.61524C28.5448 8.82217 28.6235 9.04851 28.7692 9.27166C28.8075 9.33338 28.8338 9.41189 28.8771 9.46064C28.8898 9.47509 28.9041 9.48583 28.9202 9.4947C28.9175 9.53887 28.9254 9.58098 28.9422 9.62476C28.9572 9.66673 28.9719 9.69585 28.9902 9.7304C29.0307 9.8123 29.1174 9.90981 29.1131 9.96136C29.1014 10.0792 29.1753 10.1568 29.177 10.2431C29.2183 10.2754 29.2488 10.3005 29.2811 10.3256C29.2796 10.3385 29.2817 10.355 29.2748 10.3643C29.2185 10.4592 29.2043 10.5477 29.2659 10.6255C29.3275 10.7015 29.3559 10.7983 29.3716 10.8789C29.3756 10.9027 29.3761 10.9266 29.3889 10.9502C29.4019 10.9775 29.3677 11.0352 29.3742 11.0939C29.3787 11.1452 29.4153 11.2088 29.4255 11.2748C29.4337 11.3334 29.4353 11.4125 29.4132 11.4552C29.3825 11.5073 29.3818 11.5587 29.3869 11.6377C29.3881 11.6983 29.3337 11.7141 29.3768 11.8364C29.3993 11.9058 29.3206 11.9423 29.3442 12.0631C29.328 12.0432 29.3099 12.0215 29.2865 11.9981C29.2936 12.0899 29.2973 12.1854 29.2957 12.281L29.2881 12.43C29.2822 12.4908 29.2764 12.5516 29.2687 12.6087C29.2591 12.6567 29.2675 12.7227 29.2633 12.7779C29.2606 12.8184 29.258 12.8662 29.2554 12.9104C29.2509 12.9491 29.2445 12.986 29.2326 13.0046C29.1023 13.1984 29.0986 13.3639 29.0553 13.4952C29.0286 13.5693 29.0362 13.5967 29.0353 13.6408C29.0361 13.6813 29.0369 13.7199 29.0253 13.7568C29.0187 13.779 29.023 13.8175 29.0444 13.83C29.1409 13.8905 29.1011 13.9299 29.0721 13.9783C29.0481 14.0156 29.0435 14.0487 29.0814 14.0902C29.0958 14.1065 29.1121 14.1227 29.1212 14.1409C29.1322 14.1591 29.136 14.1737 29.1317 14.2216C29.1302 14.2345 29.1503 14.2671 29.1591 14.2688C29.2015 14.268 29.2055 14.2954 29.2085 14.356C29.2151 14.5085 29.2271 14.6645 29.2107 14.8173C29.1928 14.9776 29.15 15.1347 29.0897 15.2958C29.0792 15.296 29.0616 15.3001 29.0316 15.3025C29.0148 15.3433 28.998 15.3841 28.9794 15.4285C28.961 15.4749 28.9524 15.4879 28.9422 15.5102L28.9119 15.5788C28.8916 15.627 28.8733 15.6788 28.8567 15.7343C28.8238 15.8544 28.8041 15.9247 28.7788 15.9858C28.7519 16.0489 28.7228 16.0954 28.6422 16.2147C28.5959 16.2836 28.581 16.3317 28.5614 16.4111C28.5305 16.5422 28.4908 16.6735 28.4369 16.8014C28.3425 17.0221 28.2019 17.2289 28.0165 17.4017C27.9871 17.4299 27.9598 17.4764 27.9352 17.4824C27.7526 17.5339 27.7253 17.6668 27.6944 17.796C27.657 17.7821 27.6321 17.7734 27.6019 17.763C27.5625 17.8207 27.5372 17.8782 27.5135 17.9302C27.5002 17.969 27.4505 18.0436 27.3952 18.1017C27.3692 18.1297 27.3649 18.1776 27.3426 18.2112C27.3272 18.2335 27.2833 18.2436 27.2766 18.2639C27.2433 18.362 27.2231 18.2338 27.1921 18.273C27.1567 18.3564 27.1245 18.4214 27.0337 18.471C26.9638 18.5092 26.8791 18.5973 26.8638 18.7115C26.8607 18.7337 26.8118 18.7585 26.7822 18.783C26.8091 18.8027 26.8025 18.8249 26.791 18.8674C26.758 18.982 26.7088 19.0804 26.6259 19.174C26.5966 19.2077 26.5515 19.2472 26.5273 19.2734C26.5032 19.3014 26.4862 19.333 26.4925 19.3825C26.4929 19.4046 26.4724 19.4362 26.4763 19.4545C26.5086 19.5697 26.5021 19.5974 26.4508 19.683C26.3876 19.7872 26.2972 19.857 26.2085 19.9194C26.0797 20.0103 25.9958 20.1406 25.9225 20.2707C25.8748 20.3562 25.8519 20.4431 25.7501 20.4727C25.7253 20.5559 25.6161 20.571 25.6022 20.6668C25.6024 20.676 25.5816 20.6967 25.5728 20.6968C25.4723 20.7044 25.4383 20.7694 25.391 20.8733C25.342 20.9809 25.2559 21.0874 25.1443 21.1594C25.0711 21.205 24.9929 21.2654 24.94 21.3566C24.9007 21.4217 24.836 21.4487 24.7689 21.4482C24.7477 21.4486 24.7108 21.4567 24.704 21.4716C24.6276 21.6183 24.5189 21.7455 24.4746 21.9118C24.4548 21.982 24.4405 22.0577 24.4119 22.13C24.3985 22.167 24.3798 22.2004 24.3575 22.234C24.3455 22.2508 24.3334 22.2657 24.3196 22.2807C24.2971 22.3032 24.2729 22.3257 24.2487 22.3501C24.2313 22.3652 24.2105 22.3821 24.1896 22.3973C24.1495 22.4238 24.1228 22.5015 24.0778 22.5447C23.9532 22.6667 23.8766 22.8079 23.7162 22.9086L23.6117 22.9768L23.5333 23.0299C23.4898 23.0602 23.4463 23.0923 23.4028 23.1226C23.3831 23.1083 23.3652 23.0957 23.3473 23.0814C23.3289 23.1332 23.3223 23.1573 23.3121 23.1758C23.3001 23.1945 23.2827 23.2077 23.2671 23.2227C23.2481 23.2433 23.2637 23.2264 23.3513 23.2817C23.4126 23.2602 23.465 23.2316 23.4865 23.2477C23.4169 23.2068 23.4962 23.2879 23.5004 23.3246C23.4992 23.3522 23.5316 23.3828 23.55 23.4192C23.5008 23.5176 23.4516 23.616 23.404 23.7107C23.3513 23.8092 23.2966 23.9003 23.2346 23.9751C23.1399 24.091 23.0681 24.2101 22.975 24.3185C22.8473 24.4626 22.7014 24.5832 22.5519 24.6965C22.4806 24.7512 22.3934 24.8044 22.3363 24.8607C22.2377 24.962 22.184 25.009 22.1056 25.0639C22.0656 25.0904 22.0203 25.1189 21.9557 25.1551C21.9173 25.1779 21.9033 25.1837 21.8788 25.1953C21.8561 25.2067 21.8299 25.2201 21.8141 25.2241C21.7876 25.2247 21.7758 25.2506 21.7603 25.2693C21.7171 25.2298 21.6596 25.1776 21.6569 25.2181C21.6574 25.2457 21.6148 25.2318 21.5974 25.245C21.5783 25.2601 21.5372 25.2352 21.4908 25.2104C21.4584 25.2644 21.4277 25.3183 21.3953 25.3741C21.4081 25.3977 21.4208 25.4177 21.4355 25.445C21.4184 25.4729 21.4013 25.5008 21.3825 25.5306C21.3603 25.5678 21.3346 25.6069 21.3125 25.6459C21.2767 25.7091 21.241 25.7797 21.2245 25.837C21.2064 25.9036 21.1918 25.9645 21.1277 26.0264C21.0237 26.1204 20.9978 26.2349 20.9007 26.3214C20.8747 26.3458 20.8522 26.3683 20.8315 26.3927C20.8108 26.417 20.7884 26.445 20.7816 26.4598C20.7612 26.4952 20.7443 26.5323 20.7166 26.5622C20.5735 26.7305 20.4768 26.9273 20.2957 27.0486C20.1808 27.1262 20.0873 27.2164 20.0008 27.3045C19.9715 27.3382 19.89 27.4115 19.8153 27.4736C19.7389 27.5358 19.6589 27.5944 19.5717 27.6476C19.5211 27.6781 19.4817 27.7358 19.428 27.7865C19.3941 27.7707 19.3692 27.7601 19.3407 27.7478C19.2218 27.8017 19.1153 27.859 19.0001 27.9256C18.8832 27.9923 18.7716 28.0626 18.6619 28.1346C18.6218 28.1612 18.5747 28.186 18.5452 28.2123C18.5036 28.2499 18.4886 28.2943 18.4344 28.323C18.1688 28.4533 18.081 28.4753 17.9491 28.5C17.9227 28.5042 17.891 28.5085 17.847 28.5149C17.8206 28.5191 17.7768 28.5347 17.7642 28.5221C17.6505 28.4012 17.5595 28.5262 17.4596 28.5595C17.4263 28.5712 17.395 28.5957 17.3616 28.6037C17.33 28.6117 17.293 28.6143 17.2595 28.6186C17.2419 28.6208 17.2261 28.6248 17.2121 28.6288C17.2051 28.6308 17.1998 28.6345 17.1929 28.6384C17.1788 28.6442 17.1666 28.6481 17.1561 28.6556C17.0094 28.7303 16.9044 28.6883 16.7758 28.7037C16.716 28.7104 16.6437 28.7174 16.5908 28.7203C16.5503 28.7211 16.5114 28.7219 16.4709 28.7227C16.3914 28.7206 16.3118 28.713 16.2357 28.7035C16.1826 28.6954 16.0732 28.6958 16.0715 28.6149C16.071 28.5855 16.0312 28.5404 15.9939 28.5283C15.8518 28.4852 15.8073 28.3758 15.6949 28.3174C15.6574 28.2979 15.6009 28.2972 15.5531 28.2872C15.5583 28.197 15.6852 28.1853 15.7615 28.1194C15.712 28.1149 15.6712 28.1065 15.636 28.1109C15.5867 28.1174 15.5491 28.1788 15.4862 28.1231C15.4791 28.1177 15.368 28.0354 15.3625 28.0263C15.3533 28.01 15.3459 27.9917 15.3368 27.9772C15.3296 27.9682 15.3188 27.9592 15.3206 27.961C15.2871 27.9617 15.2606 27.964 15.2359 27.9645C15.2337 27.8543 15.1445 27.8947 15.0597 27.8909C14.9855 27.8869 14.9856 27.8924 14.9664 27.9038C14.956 27.9113 14.9473 27.9189 14.9193 27.9305C14.9001 27.94 14.879 27.9441 14.8543 27.9483C14.8173 27.9509 14.7768 27.9535 14.7397 27.9543C14.6621 27.9558 14.5862 27.9555 14.514 27.9625C14.1652 27.9971 13.8083 27.894 13.4634 27.8586C13.3997 27.8507 13.3305 27.8319 13.2576 27.8076C13.1384 27.7586 13.0099 27.6913 12.899 27.6182C12.7202 27.5023 12.595 27.3339 12.4734 27.1654L12.3589 27.0022L12.3299 26.9624L12.2756 26.8955C12.2629 26.8792 12.2629 26.8792 12.2629 26.8792L12.2628 26.8755C12.2628 26.8755 12.2592 26.8701 12.2574 26.8683C12.2409 26.8392 12.2143 26.8324 12.2304 26.7585C12.2353 26.7382 12.2297 26.7218 12.2224 26.7091C12.2097 26.6909 12.1883 26.6803 12.1722 26.6696C12.1632 26.6643 12.1543 26.6571 12.1453 26.6518C12.1381 26.6446 12.1327 26.6373 12.1076 26.6195C12.0699 26.589 12.0232 26.5458 11.9781 26.4971C11.9474 26.4665 11.9159 26.3881 11.8157 26.4103C11.735 26.3494 11.6527 26.2904 11.586 26.2219C11.5392 26.1769 11.5204 26.1221 11.4771 26.0752C11.4159 26.014 11.3528 25.9509 11.2898 25.8878L11.2681 25.8644C11.2447 25.8391 11.1981 25.807 11.1961 25.7923C11.172 25.6494 11.0428 25.5417 10.9595 25.4386C10.958 25.3633 10.9551 25.3082 10.9563 25.2806C10.805 25.041 10.7051 24.8978 10.6346 24.8166L10.5226 24.6901L10.4051 24.551C10.3273 24.457 10.2512 24.3592 10.1803 24.2559C10.1344 24.2568 10.0816 24.2634 10.0287 24.2645C9.84515 24.2681 9.70006 24.1626 9.59591 23.9864C9.55933 23.9228 9.53375 23.9674 9.50357 23.9589C9.51824 23.9861 9.5311 24.0116 9.54574 24.0371C9.53515 24.0373 9.51938 24.0431 9.51578 24.0395C9.47766 23.987 9.44637 23.9233 9.40141 23.8819C9.3205 23.8081 9.2322 23.718 9.13975 23.685C8.98326 23.6274 8.93616 23.4795 8.83356 23.3805C8.82616 23.2759 8.72908 23.1877 8.72521 23.0831C8.72439 23.0426 8.73071 23.0057 8.73497 22.9542C8.64102 22.934 8.5636 22.8584 8.54929 22.7613C8.53461 22.6458 8.41915 22.6095 8.38694 22.4998C8.36786 22.4285 8.27651 22.3624 8.20747 22.3527C8.19689 22.3529 8.18807 22.3531 8.17752 22.3552C8.14057 22.3614 8.12087 22.3471 8.12884 22.3047C8.13358 22.277 8.08227 22.2707 8.12733 22.2294C8.1707 22.1917 8.16107 22.2397 8.17379 22.2578C8.18835 22.2796 8.22368 22.2807 8.25926 22.2947L8.26463 22.2983C8.26463 22.2983 8.27146 22.2871 8.27308 22.2797C8.29664 22.2223 8.21929 22.1503 8.29369 22.1635C8.2499 22.0927 8.37185 21.9248 8.30448 21.9979C8.1818 22.129 8.1483 22.0433 8.14819 22.0378C8.15899 21.9604 8.10429 21.9615 8.04622 21.97C7.98457 21.9767 7.92495 21.9963 7.85073 21.9041C7.81445 21.8552 7.66263 21.8545 7.58022 21.7937C7.4835 21.724 7.39351 21.6376 7.31241 21.5546L7.20966 21.4483L7.1196 21.3582C7.03317 21.2735 7.00074 21.1529 6.90034 21.0758C6.83403 21.0257 6.79906 20.9547 6.7641 20.8837L8.65645 18.9599C8.70468 18.9883 8.75287 19.0149 8.80761 19.0157C8.82701 19.0153 8.88139 19.0859 8.88142 19.0877C8.90364 19.2269 8.98571 19.183 9.05449 19.1798C9.08625 19.1792 9.11981 19.1803 9.12334 19.1802C9.18436 19.2305 9.24174 19.2753 9.2938 19.3183L9.33328 19.3506C9.33328 19.3506 9.34394 19.3541 9.34927 19.3558C9.35997 19.3611 9.36515 19.3555 9.37044 19.3554C9.39492 19.3439 9.40709 19.3344 9.41242 19.3362C9.41418 19.3361 9.41778 19.3397 9.41613 19.3453C9.45738 19.3776 9.50583 19.417 9.56862 19.4672C9.59508 19.4667 9.6146 19.4718 9.63603 19.4842C9.65926 19.4985 9.68264 19.5201 9.70426 19.5417C9.74749 19.5849 9.78727 19.6319 9.84965 19.6619C9.94945 19.7095 10.0395 19.7978 10.1554 19.858C10.2249 19.8915 10.2882 19.9656 10.3567 20.034C10.3783 20.0575 10.4017 20.0809 10.4251 20.1007C10.4484 20.1186 10.4661 20.1237 10.4927 20.1287C10.5403 20.2123 10.6121 20.187 10.6884 20.2038C10.6882 20.281 10.7266 20.3501 10.6822 20.4227C10.6583 20.4618 10.6792 20.5385 10.6857 20.5991C10.688 20.6247 10.7115 20.6518 10.712 20.6776C10.7125 20.7014 10.7008 20.7348 10.6868 20.7387C10.6692 20.7428 10.6405 20.7176 10.5995 20.6982C10.6317 20.8097 10.662 20.912 10.6905 21.0125C10.6782 21.0128 10.6658 21.0112 10.6375 21.0081C10.6859 21.1339 10.6368 21.2378 10.6267 21.3502C10.6164 21.4533 10.6764 21.4539 10.7285 21.4952C10.7007 21.5178 10.6499 21.5372 10.6521 21.561C10.6568 21.6179 10.6707 21.6948 10.7103 21.7326C10.831 21.8534 10.9383 22.0129 11.1238 22.0202C11.1503 22.0197 11.1879 22.0465 11.2113 22.07C11.2456 22.1079 11.2793 22.1182 11.3217 22.1192C11.3446 22.1187 11.3749 22.1292 11.3963 22.1434C11.4931 22.2168 11.5813 22.2996 11.6796 22.3638C11.769 22.4208 11.8669 22.4611 11.9613 22.5034C12.0754 22.5562 12.1843 22.6184 12.2866 22.7008C12.3224 22.7295 12.3548 22.7583 12.3942 22.7869C12.4623 22.8407 12.5251 22.8909 12.5823 22.9265C12.7575 23.0333 12.822 23.1698 12.8773 23.2863C12.905 23.3464 12.9132 23.4051 12.9249 23.4582C12.9812 23.4533 12.9985 23.521 13.0268 23.526C13.0832 23.5193 13.089 23.5468 13.1194 23.5664L13.1715 23.5249L13.208 23.4929C13.1947 23.5336 13.19 23.5649 13.182 23.6037C13.1738 23.637 13.1588 23.6795 13.1525 23.7183C13.1509 23.7256 13.158 23.7273 13.1564 23.7347C13.1115 23.8735 13.1008 23.8682 13.1676 23.944C13.1695 23.9477 13.1679 23.9587 13.1679 23.9587C13.1169 23.9671 13.1018 24.0078 13.0974 24.052C13.0976 24.0612 13.1296 24.0716 13.137 24.088C13.172 24.1608 13.2208 24.2205 13.3073 24.307C13.392 24.3935 13.4661 24.4821 13.4945 24.5753C13.5001 24.5917 13.4703 24.6015 13.4582 24.6128C13.4889 24.6471 13.5231 24.6831 13.5593 24.7247C13.5973 24.7735 13.639 24.826 13.6754 24.8841C13.7228 24.9567 13.7806 25.0217 13.8384 25.0885C13.8908 25.15 13.974 25.2457 13.9529 25.2535C13.9944 25.3868 14.0969 25.4767 14.204 25.5388C14.2308 25.5548 14.261 25.5634 14.2911 25.5665L14.3813 25.5757L14.5493 25.5907C14.5847 25.5955 14.6206 25.6297 14.6557 25.6161C14.7065 25.5967 14.7557 25.5884 14.8032 25.5801C14.856 25.5717 14.8806 25.5638 14.9755 25.5454C15.0019 25.5393 15.0406 25.5367 15.076 25.5397C15.0954 25.5393 15.1149 25.5426 15.1379 25.5458C15.2034 25.5537 15.237 25.5585 15.2723 25.5596C15.3094 25.5589 15.3447 25.5582 15.3799 25.5538C15.4503 25.5432 15.5204 25.5179 15.5866 25.478C15.6459 25.4419 15.7288 25.4402 15.7934 25.4003C15.8056 25.3927 15.8432 25.4195 15.8769 25.4317C15.9041 25.3778 15.9295 25.3259 15.9568 25.2757C16.0053 25.3207 16.0621 25.3342 16.1051 25.2801C16.1516 25.2221 16.2056 25.1843 16.2634 25.1629C16.2932 25.1531 16.3248 25.1451 16.3565 25.1408C16.3882 25.1365 16.4288 25.1357 16.4377 25.1392C16.4606 25.1406 16.4835 25.1364 16.5062 25.1268C16.5185 25.1229 16.5273 25.1209 16.5414 25.1206C16.5731 25.1163 16.6049 25.1156 16.6385 25.1186C16.6792 25.1233 16.7561 25.085 16.7605 25.0408C16.771 24.9524 16.8431 24.9381 16.9258 24.9235L17.0981 24.8925C17.1228 24.8883 17.1508 24.8767 17.172 24.88C17.2287 24.8917 17.2874 24.9107 17.344 24.9188C17.3724 24.9237 17.4024 24.925 17.4323 24.9207C17.457 24.9184 17.5044 24.9082 17.506 24.8972C17.5111 24.8897 17.5162 24.8786 17.5212 24.8656C17.5212 24.8656 17.532 24.8764 17.5357 24.8855C17.5835 24.9802 17.6139 24.9097 17.6218 24.8636C17.633 24.8082 17.643 24.7786 17.6711 24.7689C17.6816 24.765 17.6793 24.7374 17.686 24.7226C17.6979 24.6985 17.7464 24.7416 17.7465 24.7434C17.7577 24.8609 17.8128 24.7936 17.847 24.8297C17.8385 24.8427 17.83 24.8576 17.8129 24.8855C17.8483 24.894 17.8765 24.8879 17.8997 24.904C17.9463 24.9361 18.0017 24.9736 18.0242 25.0393C18.0563 25.1416 18.1354 25.1235 18.1977 25.1498C18.228 25.1639 18.2832 25.1021 18.2816 25.1977C18.3204 25.1969 18.361 25.1961 18.3996 25.1843C18.4487 25.1668 18.4688 25.1168 18.461 25.0802C18.4511 25.0252 18.4485 24.983 18.5149 24.9486C18.5323 24.939 18.5514 24.9203 18.5581 24.9036C18.6238 24.7479 18.7544 24.657 18.8758 24.5535C18.8615 24.4564 18.9199 24.3743 18.9552 24.2854C18.979 24.2389 18.9716 24.2244 18.9816 24.1948C18.9899 24.1707 18.9965 24.1467 19.0049 24.1226C19.0199 24.0782 19.0242 24.0285 19.0268 23.9825C19.0298 23.9567 19.0259 23.9421 19.0359 23.9088C19.0475 23.8736 19.0643 23.831 19.0864 23.7883C19.1101 23.74 19.0965 23.6741 19.1145 23.6058C19.1992 23.3431 19.4014 23.1258 19.5897 22.9217C19.5916 22.8426 19.5654 22.7659 19.7184 22.6526C19.821 22.577 19.9182 22.4905 20.028 22.4239C20.1274 22.3631 20.1638 22.3293 20.2035 22.2862C20.2258 22.2545 20.2166 22.2363 20.225 22.2123C20.3447 22.2834 20.3499 22.2778 20.4039 22.3318C20.4586 22.3289 20.4395 22.2613 20.4351 22.2136C20.4304 22.1585 20.4169 22.1018 20.409 22.0579C20.405 22.0359 20.4046 22.0157 20.4078 21.9972C20.4076 21.988 20.4127 21.9806 20.4179 21.9731C20.4315 21.949 20.4451 21.9248 20.4605 21.8987C20.5469 21.8933 20.6353 21.9007 20.7255 21.91C20.791 21.9197 20.8907 21.8736 20.9799 21.8332C21.0271 21.812 21.0347 21.924 21.1099 21.8048C21.1487 21.8904 21.2504 21.7689 21.3205 21.7418C21.4379 21.7008 21.5458 21.7097 21.7141 21.5684C21.7541 21.5345 21.8278 21.5165 21.8422 21.5309C21.9053 21.5958 21.9771 21.4768 22.0351 21.4664C22.0393 21.5012 22.0435 21.5342 22.052 21.6058C22.1704 21.4361 22.2835 21.353 22.2983 21.2111C22.3073 21.1356 22.3307 21.0671 22.363 21.0058C22.3831 20.9539 22.4157 20.9073 22.4537 20.8643C22.4952 20.8212 22.4934 20.7312 22.5496 20.719C22.5602 20.7188 22.5725 20.7149 22.5916 20.6998C22.6072 20.6866 22.6211 20.6735 22.6349 20.6585C22.6626 20.6303 22.6866 20.5986 22.7196 20.5704C22.6812 20.5032 22.6428 20.4359 22.5989 20.3614C22.6575 20.2904 22.7267 20.221 22.7798 20.1409C22.8329 20.059 22.9019 19.9804 22.8715 19.8726C22.8487 19.794 22.9092 19.7303 22.9915 19.6937C23.0107 19.6841 23.0418 19.6504 23.0398 19.6376C23.026 19.5662 23.0741 19.5027 23.0975 19.4379C23.1109 19.4009 23.1327 19.3453 23.159 19.3337C23.2447 19.2953 23.2839 19.2246 23.3157 19.1413C23.3208 19.1283 23.3364 19.117 23.3486 19.1075C23.4352 19.0268 23.5167 18.9516 23.5104 18.8157C23.5097 18.7808 23.515 18.6925 23.5959 18.6798C23.6012 18.6797 23.6131 18.6556 23.6146 18.6427C23.6287 18.556 23.6432 18.4859 23.739 18.4214C23.8035 18.3797 23.8544 18.2776 23.9315 18.2522C23.9964 18.2306 24.0218 18.1768 24.0616 18.1356C24.1324 18.0606 24.1763 17.9587 24.2776 17.9088C24.3266 17.884 24.392 17.8018 24.3288 17.7332C24.3894 17.6713 24.3963 17.5793 24.4482 17.5231C24.5 17.4687 24.5984 17.4429 24.6598 17.4269C24.6756 17.4229 24.6916 17.4281 24.7129 17.4351C24.7078 17.4444 24.7027 17.4555 24.7012 17.4647C24.7012 17.4684 24.7154 17.4718 24.7225 17.4735C24.7241 17.4624 24.7256 17.4513 24.7218 17.4367C24.8358 17.4013 24.9612 17.3179 25.0755 17.3855C25.1665 17.3432 25.2851 17.3611 25.3447 17.2551C25.401 17.1584 25.458 17.2694 25.4971 17.1969C25.5209 17.1505 25.4443 17.1171 25.5207 17.0512C25.6092 16.9741 25.6281 16.8616 25.6122 16.7737C25.5886 16.6528 25.6462 16.5322 25.6881 16.4248C25.7049 16.3803 25.7234 16.334 25.7401 16.2877C25.7569 16.2432 25.7978 16.1726 25.8233 16.1224C25.859 16.0574 25.8798 16.0349 25.9308 16.0284C25.9321 16.0063 25.9335 15.9842 25.9377 15.9327C26.0677 15.8124 26.1673 15.6762 26.1788 15.5437C26.2757 15.5344 26.1709 15.4152 26.2253 15.3994C26.2358 15.3955 26.2086 15.3574 26.1903 15.3284L26.1867 15.3229C26.1897 15.2971 26.2424 15.2832 26.1617 15.2223C26.151 15.2152 26.1579 15.2059 26.1595 15.1985C26.1541 15.1931 26.167 15.1358 26.1733 15.0953L26.2001 14.9385C26.2033 14.9219 26.2046 14.8943 26.199 14.8797C26.1622 14.8051 26.1537 14.7336 26.2439 14.6582C26.2699 14.6338 26.2565 14.5808 26.2134 14.5449C26.2098 14.5413 26.2113 14.5266 26.2076 14.5211C26.1931 14.4994 26.1785 14.4758 26.1572 14.4707L26.1607 14.4706L26.192 14.4461C26.2042 14.4385 26.2429 14.4304 26.225 14.4197C26.2018 14.4073 26.1963 14.3964 26.1944 14.3872L26.1895 14.3193C26.1873 14.2973 26.1867 14.2679 26.1898 14.2476C26.1947 14.2291 26.2043 14.1812 26.2236 14.1753C26.3109 14.1275 26.2826 13.9462 26.2912 13.8467C26.3024 13.705 26.3488 13.7261 26.3658 13.6945C26.419 13.5317 26.3735 13.29 26.5288 13.1968C26.5354 13.1746 26.5468 13.1266 26.5599 13.0785C26.6103 12.8625 26.7111 12.695 26.8411 12.5803C26.8672 12.5577 26.8913 12.5315 26.9032 12.5055C26.915 12.4814 26.906 12.4705 26.8844 12.4489C26.8943 12.4138 26.9308 12.3873 26.8827 12.3644C26.8788 12.3443 26.8765 12.3222 26.8638 12.3005C26.9225 12.3268 26.9742 12.3497 27.0241 12.3726C27.0396 12.3557 27.0431 12.3557 27.0518 12.35C27.0715 12.3624 27.0929 12.3749 27.1126 12.3873C27.1354 12.3814 27.2138 12.4147 27.2259 12.4035C27.2346 12.3978 27.2791 12.4171 27.2988 12.4296C27.32 12.4291 27.3395 12.4343 27.359 12.4412C27.3821 12.4444 27.4017 12.4551 27.4266 12.4656C27.425 12.473 27.4184 12.4952 27.4191 12.5319C27.4194 12.5448 27.4192 12.5356 27.4136 12.5228C27.3872 12.5234 27.3625 12.5257 27.3378 12.528C27.3131 12.5285 27.2673 12.5294 27.269 12.5257C27.2907 12.4646 27.1754 12.4394 27.1209 12.3615C27.0646 12.2799 26.9728 12.1953 26.8873 12.0684C26.8455 12.0067 26.8756 11.9216 26.8012 11.822C26.7667 11.7749 26.7457 11.6963 26.7194 11.6159C26.71 11.5867 26.7008 11.5703 26.6863 11.5504C26.6428 11.4943 26.6564 11.3782 26.608 11.3425C26.5542 11.3013 26.5214 11.2523 26.4782 11.2109C26.4621 11.1965 26.4404 11.1712 26.4454 11.1582C26.4783 11.0381 26.3768 10.996 26.3192 10.9365C26.3048 10.9221 26.2849 10.8986 26.2759 10.8933L26.2474 10.8792C26.2296 10.8703 26.2118 10.8615 26.1939 10.8527C26.1725 10.8402 26.1026 10.8747 26.1489 10.8076C26.1504 10.7966 26.1385 10.8189 26.11 10.8029C26.0477 10.7766 25.9692 10.7359 25.8708 10.6717C25.8583 10.6627 25.8401 10.6355 25.8418 10.6318C25.888 10.4728 25.6905 10.3941 25.6042 10.3149C25.57 10.2844 25.5394 10.2538 25.5123 10.2231C25.4147 10.1092 25.3629 9.99079 25.346 9.85511C25.3371 9.76155 25.3265 9.75993 25.2159 9.61694C25.2189 9.59115 25.2253 9.5561 25.2317 9.52105C25.254 9.4048 25.2226 9.33375 25.1628 9.25592C25.0973 9.15982 25.037 9.14633 24.9884 9.09768C24.9148 9.03666 24.941 9.02327 24.9991 9.01475C25.0308 9.01227 25.0258 9.02524 25.0246 9.05651C25.025 9.07672 25.0378 9.09485 25.0523 9.11477C25.0722 9.14194 25.0938 9.16356 25.1174 9.1925L25.1027 9.16339ZM21.7234 21.6785C21.7725 21.661 21.811 21.6455 21.8602 21.6335C21.8302 21.5459 21.7884 21.5725 21.7234 21.6785Z" fill="#E1E1E1"/>
</svg>
