<?xml version="1.0" standalone="no"?>
<!DOCTYPE svg PUBLIC "-//W3C//DTD SVG 20010904//EN"
 "http://www.w3.org/TR/2001/REC-SVG-20010904/DTD/svg10.dtd">
<svg version="1.0" xmlns="http://www.w3.org/2000/svg"
 width="504.000000pt" height="495.000000pt" viewBox="0 0 504.000000 495.000000"
 preserveAspectRatio="xMidYMid meet">

<g transform="translate(0.000000,495.000000) scale(0.100000,-0.100000)"
fill="#000000" stroke="none">
<path d="M2265 4709 c-503 -61 -966 -282 -1315 -629 -129 -128 -204 -219 -303
-370 -436 -665 -484 -1495 -128 -2215 378 -763 1141 -1236 1995 -1235 751 1
1441 373 1859 1002 141 211 238 436 308 709 44 173 59 301 59 507 0 224 -12
338 -52 507 -104 438 -303 792 -620 1101 -331 324 -721 521 -1193 605 -138 24
-475 34 -610 18z m1091 -790 c29 -32 22 -101 -18 -202 -86 -215 -253 -406
-462 -529 -43 -26 -45 -29 -35 -55 26 -69 -11 -139 -157 -294 -164 -175 -232
-254 -325 -379 -112 -151 -249 -362 -249 -385 0 -4 46 37 103 91 219 212 405
325 582 353 121 20 229 -16 274 -90 64 -105 11 -328 -112 -478 -92 -111 -286
-260 -433 -334 -163 -82 -460 -164 -684 -188 -134 -15 -148 -24 -174 -117 -10
-35 -27 -69 -43 -84 -31 -30 -187 -108 -215 -108 -30 0 -21 37 29 119 66 109
123 212 123 225 0 6 -20 24 -45 39 -46 30 -53 44 -35 78 14 25 23 24 70 -7 22
-15 46 -24 54 -21 18 7 41 43 147 229 45 79 128 222 184 318 56 96 146 254
200 350 276 494 345 610 518 870 199 300 365 478 545 587 68 40 128 45 158 12z"/>
<path d="M3110 3679 c-123 -134 -290 -343 -356 -444 -50 -79 220 168 303 276
55 72 156 259 139 259 -2 0 -41 -41 -86 -91z"/>
<path d="M2654 3085 c-87 -136 -135 -217 -131 -221 9 -9 186 184 193 210 3 15
2 41 -2 59 l-9 31 -51 -79z"/>
<path d="M2714 2386 c-234 -73 -624 -424 -872 -784 -63 -91 -62 -92 77 -67
339 61 605 202 793 422 107 127 180 304 157 387 -15 53 -70 68 -155 42z"/>
</g>
</svg>
