<svg width="48" height="48" viewBox="0 0 48 48" fill="none" xmlns="http://www.w3.org/2000/svg">
<path d="M14.5533 32.5175C14.932 33.0937 15.5459 33.9077 16.4639 34.6971C19.8127 37.565 24.0498 37.3924 25.4067 37.3392C27.9601 37.237 30.0625 36.4941 31.5771 35.7465" stroke="#E1E1E1" stroke-width="2.8" stroke-linecap="round"/>
<path d="M11.4929 17.4755C10.8304 16.516 10.9685 14.9571 10.8296 13.8687C10.8246 13.8308 10.6699 12.9549 10.6387 11.7907C10.6166 10.9865 10.6747 10.7744 10.7397 10.6236C11.103 9.74399 12.1629 9.41782 12.4949 9.31743C12.8071 9.22402 13.5734 9.3896 15.9993 9.60783C16.7584 9.6747 18.9738 10.3573 19.4736 10.9433C19.9571 11.5087 21.6809 13.4378 21.1557 14.0559C21.0517 14.1787 20.969 14.2807 21.0078 14.3506C21.1295 14.5934 22.5664 13.9858 24.4406 13.5792C25.1992 13.413 25.0046 13.5064 27.7154 13.1479C30.7563 12.7448 30.967 12.6347 31.7139 12.7653C31.8566 12.7916 34.4706 13.2885 34.8337 14.7484C34.995 15.4107 34.6142 15.8828 34.8853 16.0968C34.9623 16.1618 35.259 16.3182 37.2885 15.04C38.5911 14.216 38.7112 13.9972 39.4141 13.7452C40.0187 13.528 40.943 13.1951 41.7761 13.6296C42.529 14.0266 42.7905 14.8359 42.8836 15.122C43.0864 15.7519 43.0165 16.2609 42.8989 17.0532C42.8249 17.5571 42.695 18.4132 42.2195 19.4053C41.768 20.3537 41.4315 20.5328 41.2248 21.3611C41.0835 21.9176 41.1004 22.4089 41.1282 22.7291" stroke="#E1E1E1" stroke-width="2.8" stroke-linecap="round"/>
<path d="M37.2576 26.7893C38.8345 26.8648 40.471 26.9939 42.156 27.1894C42.6386 27.2467 43.1212 27.304 43.5935 27.3695" stroke="#E1E1E1" stroke-width="2.5" stroke-linecap="round"/>
<path d="M34.8365 31.8009C35.9852 32.4314 37.4 33.3963 38.7285 34.8498C39.1825 35.3464 39.5663 35.8394 39.8961 36.312" stroke="#E1E1E1" stroke-width="2.5" stroke-linecap="round"/>
<path d="M4.00002 31.8667C5.03046 30.9171 6.79518 29.5701 9.3114 28.8297C10.2523 28.5546 11.1212 28.4108 11.8822 28.3428" stroke="#E1E1E1" stroke-width="2.5" stroke-linecap="round"/>
<path d="M5.15417 22.4262C6.1445 22.4087 6.93557 22.484 7.46922 22.5474C8.4107 22.6639 8.71124 22.7881 9.9699 22.9283C10.5407 22.9961 11.0094 23.0517 11.3034 23.0727" stroke="#E1E1E1" stroke-width="2.5" stroke-linecap="round"/>
<path d="M19.1667 24.9769C20.958 25.1897 21.2901 22.4328 19.4942 22.2195C17.6984 22.0062 17.3709 24.7636 19.1667 24.9769Z" fill="#E1E1E1"/>
<path d="M30.0937 26.4051C31.8849 26.6179 32.2171 23.861 30.4212 23.6477C28.6253 23.4344 28.2978 26.1918 30.0937 26.4051Z" fill="#E1E1E1"/>
<path d="M20.6515 29.3143C21.7652 29.1297 22.8451 28.7546 23.8321 28.21C23.9227 28.1602 24.0134 28.1104 24.113 28.1036C24.3401 28.0933 24.5074 28.3089 24.5861 28.5186C24.6647 28.7284 24.7023 28.9659 24.8566 29.1333C24.9611 29.2436 25.0995 29.3067 25.2385 29.3651C26.0123 29.704 26.7868 30.0384 27.5653 30.3778" stroke="#E1E1E1" stroke-width="2.5" stroke-linecap="round"/>
</svg>
